<mxfile host="2db6a910-7e00-4cf4-8391-e34f214d7cc2" modified="2020-09-15T20:49:54.880Z" agent="5.0 (Windows NT 10.0; Win64; x64) AppleWebKit/537.36 (KHTML, like Gecko) Code/1.49.0 Chrome/83.0.4103.122 Electron/9.2.1 Safari/537.36" etag="4JKZTcImC_HxNhBHJID4" version="13.1.3">
    <diagram id="6hGFLwfOUW9BJ-s0fimq" name="Page-1">
        <mxGraphModel dx="1053" dy="639" grid="1" gridSize="10" guides="1" tooltips="1" connect="1" arrows="1" fold="1" page="1" pageScale="1" pageWidth="827" pageHeight="1169" math="0" shadow="0">
            <root>
                <mxCell id="0"/>
                <mxCell id="1" parent="0"/>
                <mxCell id="38" value="" style="group" parent="1" vertex="1" connectable="0">
                    <mxGeometry width="820" height="350" as="geometry"/>
                </mxCell>
                <mxCell id="20" value="" style="rounded=0;whiteSpace=wrap;html=1;" parent="38" vertex="1">
                    <mxGeometry y="30" width="820" height="320" as="geometry"/>
                </mxCell>
                <mxCell id="26" value="&lt;font style=&quot;font-size: 24px&quot;&gt;Firebase&lt;/font&gt;" style="text;html=1;strokeColor=none;fillColor=none;align=left;verticalAlign=middle;whiteSpace=wrap;rounded=0;" parent="38" vertex="1">
                    <mxGeometry width="820" height="30" as="geometry"/>
                </mxCell>
                <mxCell id="14" value="" style="group;fontStyle=0" parent="38" vertex="1" connectable="0">
                    <mxGeometry x="56" y="55" width="200" height="270" as="geometry"/>
                </mxCell>
                <mxCell id="15" value="&lt;div&gt;&lt;i&gt;Often read and written data&lt;/i&gt;&lt;/div&gt;&lt;ul&gt;&lt;li style=&quot;text-align: left&quot;&gt;&lt;span&gt;updated time&lt;/span&gt;&lt;/li&gt;&lt;li style=&quot;text-align: left&quot;&gt;&lt;span&gt;views&lt;/span&gt;&lt;/li&gt;&lt;li style=&quot;text-align: left&quot;&gt;rate&lt;/li&gt;&lt;/ul&gt;" style="rounded=1;whiteSpace=wrap;html=1;align=center;" parent="14" vertex="1">
                    <mxGeometry y="20" width="200" height="250" as="geometry"/>
                </mxCell>
                <mxCell id="16" value="Realtime Database" style="text;html=1;strokeColor=none;fillColor=none;align=center;verticalAlign=middle;whiteSpace=wrap;rounded=0;" parent="14" vertex="1">
                    <mxGeometry width="200" height="20" as="geometry"/>
                </mxCell>
                <mxCell id="32" value="" style="group" parent="38" vertex="1" connectable="0">
                    <mxGeometry x="566" y="55" width="200" height="270" as="geometry"/>
                </mxCell>
                <mxCell id="19" value="Cloud Storage" style="text;html=1;strokeColor=none;fillColor=none;align=center;verticalAlign=middle;whiteSpace=wrap;rounded=0;" parent="32" vertex="1">
                    <mxGeometry width="200" height="20" as="geometry"/>
                </mxCell>
                <mxCell id="18" value="&lt;div&gt;Large data&lt;/div&gt;&lt;div style=&quot;text-align: left&quot;&gt;&lt;ul&gt;&lt;li&gt;image&lt;/li&gt;&lt;li&gt;JSON&lt;/li&gt;&lt;/ul&gt;&lt;/div&gt;" style="rounded=1;whiteSpace=wrap;html=1;align=center;" parent="32" vertex="1">
                    <mxGeometry y="20" width="200" height="250" as="geometry"/>
                </mxCell>
                <mxCell id="10" value="&lt;div&gt;Searched data&lt;/div&gt;&lt;ul&gt;&lt;li style=&quot;text-align: left&quot;&gt;name&lt;/li&gt;&lt;li style=&quot;text-align: left&quot;&gt;title&lt;/li&gt;&lt;li style=&quot;text-align: left&quot;&gt;tags&lt;/li&gt;&lt;li style=&quot;text-align: left&quot;&gt;etc...&lt;/li&gt;&lt;/ul&gt;" style="rounded=1;whiteSpace=wrap;html=1;align=center;" parent="38" vertex="1">
                    <mxGeometry x="314" y="75" width="200" height="250" as="geometry"/>
                </mxCell>
                <mxCell id="31" value="" style="group" parent="38" vertex="1" connectable="0">
                    <mxGeometry x="310" y="55" width="200" height="270" as="geometry"/>
                </mxCell>
                <mxCell id="11" value="Cloud Firestore" style="text;html=1;strokeColor=none;fillColor=none;align=center;verticalAlign=middle;whiteSpace=wrap;rounded=0;" parent="31" vertex="1">
                    <mxGeometry width="200" height="20" as="geometry"/>
                </mxCell>
                <mxCell id="33" value="" style="group" parent="1" vertex="1" connectable="0">
                    <mxGeometry y="560" width="410" height="300" as="geometry"/>
                </mxCell>
                <mxCell id="34" value="" style="rounded=0;whiteSpace=wrap;html=1;" parent="33" vertex="1">
                    <mxGeometry y="28.125" width="409.99999999999994" height="271.875" as="geometry"/>
                </mxCell>
                <mxCell id="35" value="&lt;font style=&quot;font-size: 24px&quot;&gt;Storage (&lt;i&gt; local &lt;/i&gt;)&lt;/font&gt;" style="text;html=1;strokeColor=none;fillColor=none;align=left;verticalAlign=middle;whiteSpace=wrap;rounded=0;" parent="33" vertex="1">
                    <mxGeometry width="409.99999999999994" height="28.125" as="geometry"/>
                </mxCell>
                <mxCell id="39" value="&lt;font style=&quot;font-size: 24px&quot;&gt;user&lt;/font&gt;" style="rounded=1;whiteSpace=wrap;html=1;" vertex="1" parent="1">
                    <mxGeometry x="590" y="680" width="120" height="60" as="geometry"/>
                </mxCell>
                <mxCell id="40" value="&lt;font style=&quot;font-size: 20px&quot;&gt;Database.read / Database.write&lt;/font&gt;" style="edgeStyle=orthogonalEdgeStyle;rounded=0;orthogonalLoop=1;jettySize=auto;html=1;exitX=0.5;exitY=1;exitDx=0;exitDy=0;entryX=0.5;entryY=0;entryDx=0;entryDy=0;strokeWidth=2;startArrow=classic;startFill=1;" edge="1" parent="1" source="15" target="39">
                    <mxGeometry relative="1" as="geometry"/>
                </mxCell>
            </root>
        </mxGraphModel>
    </diagram>
</mxfile>